<svg id="Editar" xmlns="http://www.w3.org/2000/svg" width="35" height="35" viewBox="0 0 35 35">
  <rect id="Retângulo_2283" data-name="Retângulo 2283" width="35" height="35" fill="none"/>
  <path id="edit" d="M13.649,3.9,12.385,5.162a.329.329,0,0,1-.466,0L8.876,2.119a.329.329,0,0,1,0-.466L10.14.39A1.319,1.319,0,0,1,12,.39l1.647,1.647A1.314,1.314,0,0,1,13.649,3.9ZM7.791,2.739l-7.2,7.2-.581,3.33a.659.659,0,0,0,.762.762l3.33-.584,7.2-7.2a.329.329,0,0,0,0-.466L8.26,2.739a.333.333,0,0,0-.469,0ZM3.4,9.32a.382.382,0,0,1,0-.543L7.624,4.556a.384.384,0,0,1,.543.543L3.945,9.32A.382.382,0,0,1,3.4,9.32Z" transform="translate(9.998 9.995)" fill="#004992"/>
</svg>
