<svg id="Excluir" xmlns="http://www.w3.org/2000/svg" width="35" height="35" viewBox="0 0 35 35">
  <rect id="Retângulo_2282" data-name="Retângulo 2282" width="35" height="35" fill="none"/>
  <g id="Trash" transform="translate(12 10.485)">
    <path id="trash-2" data-name="trash" d="M2.877,12.715A1.315,1.315,0,0,0,4.192,14.03h6.333a1.315,1.315,0,0,0,1.315-1.315l.779-9.207H2.1ZM9.941,5.7a.438.438,0,1,1,.877,0l-.39,6.138a.438.438,0,1,1-.877,0Zm-3.02,0a.438.438,0,0,1,.877,0v6.138a.438.438,0,1,1-.877,0ZM3.9,5.7a.438.438,0,0,1,.877,0l.39,6.138a.438.438,0,1,1-.877,0ZM11.889.877H9.77L9.512.364A.658.658,0,0,0,8.923,0H5.791A.65.65,0,0,0,5.2.364L4.947.877H2.828c-.242,0-.438.2-.828,1.315a.438.438,0,0,0,.438.438h9.84a.438.438,0,0,0,.438-.438C12.328,1.073,12.131.877,11.889.877Z" transform="translate(-2 0)" fill="#c21618"/>
  </g>
</svg>
