<svg xmlns="http://www.w3.org/2000/svg" width="29" height="25.638" viewBox="0 0 29 25.638">
  <g id="Icon_feather-users" data-name="Icon feather-users" transform="translate(-0.5 -4.862)">
    <path id="Caminho_667" data-name="Caminho 667" d="M21.136,30.833V28.056c0-3.068-2.2-5.556-4.909-5.556H6.409C3.7,22.5,1.5,24.987,1.5,28.056v2.778" transform="translate(0 -1.333)" fill="none" stroke="#f8f9fa" stroke-linecap="round" stroke-linejoin="round" stroke-width="2"/>
    <path id="Caminho_668" data-name="Caminho 668" d="M17.318,9.346A4.909,4.909,0,1,1,12.409,4.5,4.878,4.878,0,0,1,17.318,9.346Z" transform="translate(-1.091 1.419)" fill="none" stroke="#f8f9fa" stroke-linecap="round" stroke-linejoin="round" stroke-width="2"/>
    <path id="Caminho_669" data-name="Caminho 669" d="M33.682,30.848V28.07A5.479,5.479,0,0,0,30,22.695" transform="translate(-5.182 -1.348)" fill="none" stroke="#f8f9fa" stroke-linecap="round" stroke-linejoin="round" stroke-width="2"/>
    <path id="Caminho_670" data-name="Caminho 670" d="M24,4.695a4.831,4.831,0,0,1,0,9.389" transform="translate(-4.091 1.381)" fill="none" stroke="#f8f9fa" stroke-linecap="round" stroke-linejoin="round" stroke-width="2"/>
  </g>
</svg>
